<?xml version="1.0" encoding="utf-8"?>
<!-- Generator: Adobe Illustrator 16.0.4, SVG Export Plug-In . SVG Version: 6.00 Build 0)  -->
<!DOCTYPE svg PUBLIC "-//W3C//DTD SVG 1.1//EN" "http://www.w3.org/Graphics/SVG/1.1/DTD/svg11.dtd">
<svg version="1.1" id="Calque_1" xmlns="http://www.w3.org/2000/svg" xmlns:xlink="http://www.w3.org/1999/xlink" x="0px" y="0px"
	 width="391px" height="117px" viewBox="225.445 536.775 391 117" enable-background="new 225.445 536.775 391 117"
	 xml:space="preserve">
<g>
	<g>
		<circle fill="#00B0DB" cx="560.512" cy="595.319" r="11.719"/>
		<g>
			<path fill="#0097BF" d="M538.401,595.32c0-2.913-2.369-5.28-5.279-5.28c-2.912,0-5.281,2.367-5.281,5.28
				c0,2.911,2.369,5.28,5.281,5.28C536.032,600.6,538.401,598.231,538.401,595.32z"/>
			<path fill="#0097BF" d="M587.905,590.04c-2.91,0-5.279,2.366-5.279,5.279c0,2.91,2.369,5.281,5.279,5.281
				c2.914,0,5.281-2.371,5.281-5.281C593.188,592.407,590.819,590.04,587.905,590.04z"/>
			<path fill="#0097BF" d="M541.143,609.405c-1.41,0-2.736,0.553-3.732,1.551c-1,0.996-1.547,2.322-1.547,3.734
				c0,1.408,0.547,2.734,1.547,3.732c0.996,0.996,2.322,1.547,3.732,1.547s2.738-0.551,3.734-1.547c1-0.998,1.547-2.324,1.547-3.732
				c0-1.412-0.547-2.738-1.547-3.734C543.881,609.956,542.553,609.405,541.143,609.405z"/>
			<path fill="#0097BF" d="M579.881,581.232c1.412,0,2.738-0.55,3.734-1.549c1-0.996,1.549-2.324,1.549-3.735
				s-0.549-2.734-1.549-3.732c-0.996-0.995-2.322-1.546-3.73-1.546c-1.414,0-2.74,0.551-3.734,1.546
				c-1,0.998-1.553,2.322-1.553,3.732c0,1.411,0.553,2.739,1.553,3.735C577.145,580.682,578.469,581.232,579.881,581.232z"/>
			<path fill="#0097BF" d="M541.143,581.232c1.41,0,2.738-0.55,3.734-1.549c2.059-2.06,2.059-5.409,0-7.469
				c-0.996-0.995-2.324-1.546-3.732-1.546c-1.412,0-2.738,0.551-3.734,1.546c-1,0.998-1.547,2.321-1.547,3.732
				s0.547,2.739,1.547,3.735C538.407,580.682,539.733,581.232,541.143,581.232z"/>
			<path fill="#0097BF" d="M579.881,609.405c-1.412,0-2.736,0.553-3.73,1.551c-1,0.996-1.553,2.322-1.553,3.734
				c0,1.408,0.553,2.734,1.553,3.732c0.994,0.998,2.318,1.547,3.73,1.547s2.738-0.551,3.734-1.547c1-0.998,1.549-2.324,1.549-3.734
				s-0.549-2.736-1.549-3.732C582.62,609.956,581.293,609.405,579.881,609.405z"/>
			<path fill="#0097BF" d="M560.512,562.644c-2.91,0-5.277,2.37-5.277,5.28c0,2.913,2.367,5.283,5.277,5.283
				c2.912,0,5.281-2.37,5.281-5.283C565.793,565.014,563.424,562.644,560.512,562.644z"/>
			<path fill="#0097BF" d="M560.512,617.43c-2.91,0-5.277,2.369-5.277,5.281s2.367,5.279,5.277,5.279
				c2.912,0,5.281-2.367,5.281-5.279S563.424,617.43,560.512,617.43z"/>
		</g>
		<g>
			<path fill="#007FA2" d="M605.139,592.333c-1.645,0-2.982,1.339-2.982,2.985c0,1.645,1.34,2.984,2.982,2.984
				c1.645,0,2.984-1.342,2.984-2.984C608.124,593.672,606.784,592.333,605.139,592.333z"/>
			<circle fill="#007FA2" cx="560.465" cy="639.92" r="2.982"/>
			<path fill="#007FA2" d="M560.497,553.612c1.646,0,2.984-1.338,2.984-2.982c0-1.646-1.338-2.982-2.984-2.982
				c-1.645,0-2.98,1.338-2.98,2.982S558.854,553.612,560.497,553.612z"/>
			<path fill="#007FA2" d="M589.817,624.594c-0.564,0.562-0.873,1.312-0.873,2.111c-0.002,0.795,0.309,1.545,0.869,2.107
				c0.568,0.564,1.316,0.875,2.113,0.877c0.797-0.002,1.547-0.312,2.111-0.875c0.561-0.562,0.873-1.314,0.873-2.113
				c0-0.793-0.312-1.543-0.873-2.107c-0.564-0.562-1.316-0.873-2.111-0.871C591.129,623.721,590.379,624.032,589.817,624.594z"/>
			<path fill="#007FA2" d="M589.872,561.722c-0.564,0.562-0.875,1.312-0.875,2.111c0,0.796,0.311,1.547,0.875,2.108
				c0.561,0.563,1.311,0.873,2.105,0.874c0.801-0.001,1.551-0.311,2.113-0.874c0.562-0.562,0.875-1.312,0.873-2.109
				c0-0.798-0.311-1.548-0.873-2.109c-0.562-0.563-1.314-0.874-2.113-0.873C591.184,560.848,590.432,561.159,589.872,561.722z"/>
			<path fill="#007FA2" d="M601.711,609.333c-0.43-0.014-0.848,0.062-1.244,0.227c-1.078,0.445-1.801,1.49-1.836,2.658
				c-0.057,1.643,1.236,3.023,2.879,3.08c0.432,0.016,0.848-0.062,1.242-0.225c1.078-0.447,1.803-1.492,1.842-2.658
				C604.647,610.77,603.354,609.389,601.711,609.333z"/>
			<path fill="#007FA2" d="M577.401,557.201c0.428,0.018,0.848-0.061,1.24-0.223c1.08-0.449,1.801-1.49,1.84-2.659
				c0.027-0.795-0.258-1.553-0.803-2.136c-0.543-0.584-1.277-0.919-2.076-0.945c-0.43-0.013-0.848,0.062-1.242,0.226
				c-1.076,0.445-1.801,1.489-1.84,2.654C574.467,555.763,575.758,557.149,577.401,557.201z"/>
			<path fill="#007FA2" d="M576.37,633.704c-0.33,0.139-0.633,0.334-0.893,0.576c-0.586,0.545-0.922,1.283-0.949,2.08
				c-0.025,0.797,0.262,1.559,0.807,2.139c0.846,0.9,2.18,1.191,3.322,0.719c0.328-0.137,0.631-0.332,0.895-0.576
				c1.199-1.127,1.264-3.018,0.139-4.219C578.844,633.522,577.51,633.231,576.37,633.704z"/>
			<path fill="#007FA2" d="M602.805,581.012c0.332-0.138,0.633-0.33,0.896-0.576c1.201-1.126,1.262-3.017,0.141-4.217
				c-0.846-0.904-2.178-1.194-3.32-0.722c-0.334,0.139-0.635,0.334-0.896,0.579c-1.199,1.122-1.266,3.014-0.141,4.22
				C600.331,581.197,601.665,581.485,602.805,581.012z"/>
			<path fill="#007FA2" d="M515.846,592.333c1.645,0,2.984,1.339,2.984,2.985c0,1.645-1.34,2.984-2.984,2.984
				c-1.643,0-2.982-1.342-2.982-2.984C512.862,593.672,514.204,592.333,515.846,592.333z"/>
			<path fill="#007FA2" d="M531.17,624.594c0.562,0.562,0.873,1.312,0.873,2.111c0.002,0.795-0.309,1.545-0.871,2.107
				c-0.566,0.564-1.314,0.875-2.111,0.877c-0.799-0.002-1.547-0.312-2.111-0.875c-0.562-0.562-0.873-1.314-0.873-2.113
				c0-0.793,0.311-1.543,0.873-2.107c0.564-0.562,1.314-0.873,2.111-0.871C529.856,623.721,530.606,624.032,531.17,624.594z"/>
			<path fill="#007FA2" d="M531.116,561.722c0.562,0.562,0.873,1.312,0.873,2.111c0,0.796-0.311,1.547-0.875,2.108
				c-0.562,0.563-1.311,0.873-2.107,0.874c-0.801-0.001-1.549-0.311-2.111-0.874c-0.562-0.562-0.875-1.312-0.873-2.109
				c0.002-0.798,0.312-1.548,0.873-2.109c0.564-0.563,1.314-0.874,2.111-0.873C529.801,560.848,530.553,561.159,531.116,561.722z"/>
			<path fill="#007FA2" d="M519.274,609.333c0.432-0.014,0.85,0.062,1.244,0.227c1.078,0.445,1.803,1.49,1.838,2.658
				c0.057,1.643-1.236,3.023-2.879,3.08c-0.432,0.016-0.848-0.062-1.242-0.225c-1.078-0.447-1.805-1.492-1.842-2.658
				C516.338,610.77,517.631,609.389,519.274,609.333z"/>
			<path fill="#007FA2" d="M543.586,557.201c-0.428,0.018-0.85-0.061-1.242-0.223c-1.08-0.449-1.799-1.49-1.84-2.659
				c-0.027-0.795,0.258-1.553,0.803-2.136c0.543-0.584,1.279-0.919,2.076-0.945c0.43-0.013,0.848,0.062,1.242,0.226
				c1.078,0.445,1.803,1.489,1.84,2.654C546.52,555.763,545.227,557.149,543.586,557.201z"/>
			<path fill="#007FA2" d="M544.616,633.704c0.33,0.139,0.633,0.334,0.893,0.576c0.586,0.545,0.922,1.283,0.949,2.08
				c0.025,0.797-0.262,1.559-0.807,2.139c-0.846,0.9-2.18,1.191-3.32,0.719c-0.33-0.137-0.633-0.332-0.896-0.576
				c-1.199-1.127-1.264-3.018-0.139-4.219C542.141,633.522,543.475,633.231,544.616,633.704z"/>
			<path fill="#007FA2" d="M518.18,581.012c-0.332-0.138-0.633-0.33-0.895-0.576c-1.201-1.126-1.264-3.017-0.143-4.217
				c0.848-0.904,2.18-1.194,3.322-0.722c0.332,0.139,0.633,0.334,0.895,0.579c1.199,1.122,1.266,3.014,0.141,4.22
				C520.655,581.197,519.321,581.485,518.18,581.012z"/>
		</g>
	</g>
	<g>
		<g>
			<path fill="#007FA2" d="M247.14,605.963c3.857,0,7.104,0.703,9.338,1.668v6.27c-4.123-1.668-6.664-2.104-9.338-2.104
				c-5.307,0-7.149,5.041-7.149,11.311c0,6.271,1.842,11.312,7.149,11.312c2.674,0,5.216-0.439,9.338-2.105v6.271
				c-2.234,0.965-5.481,1.666-9.338,1.666c-10.128,0-13.374-7.803-13.374-17.145C233.766,613.768,237.012,605.963,247.14,605.963z"
				/>
			<path fill="#007FA2" d="M273.888,640.252c-11.223,0-12.759-8.551-12.759-17.145c0-8.596,1.536-17.145,12.759-17.145
				c11.27,0,12.759,8.551,12.759,17.145C286.648,631.702,285.158,640.252,273.888,640.252z M277.363,604.309l-3.236-2.068
				l-3.954,2.068h-4.208l5.836-4.225h4.65l5.121,4.225H277.363z M273.888,611.797c-5.699,0-6.532,5.305-6.532,11.311
				s0.833,11.312,6.532,11.312c5.703,0,6.534-5.309,6.534-11.312C280.422,617.102,279.591,611.797,273.888,611.797z"/>
			<path fill="#007FA2" d="M303.573,612.499v27.053h-6.095v-27.053h-8.245v-5.832h22.583v5.832H303.573z"/>
			<path fill="#007FA2" d="M335.364,625.475H322.3v8.244h14.425v5.832h-20.477v-32.885h20.477v5.832H322.3v7.145h13.064V625.475z"/>
			<path fill="#007FA2" d="M350.631,639.551v-32.885h9.734c11.003,0,14.117,7.104,14.117,16.441c0,9.34-3.114,16.441-14.117,16.441
				h-9.734V639.551z M356.683,633.719h3.815c5.917,0,7.715-4.428,7.715-10.609c0-6.184-1.797-10.611-7.715-10.611h-3.815V633.719z"
				/>
			<path fill="#007FA2" d="M378.391,617.627c0,0,2.149-4.385,1.271-10.961h5.767c-0.178,6.795-4.604,10.961-4.604,10.961H378.391z"
				/>
			<path fill="#007FA2" d="M382.921,639.551l11.705-33.588h4.211l11.663,33.588h-6.533l-2.763-8.33h-9.076l-2.63,8.33H382.921z
				 M396.732,616.883l-2.763,8.592h5.438L396.732,616.883z"/>
			<path fill="#007FA2" d="M412.961,639.551v-3.902l15.432-23.15H413.75v-5.83h22.93v3.9l-15.432,23.15h16.002v5.832H412.961z"/>
			<path fill="#007FA2" d="M459.708,628.37v-21.701h6.051v22.229c0,9.777-8.023,11.355-12.146,11.355
				c-4.121,0-12.145-1.578-12.145-11.355v-22.229h6.049v21.701c0,5.525,3.992,6.008,6.096,6.008
				C455.717,634.377,459.708,633.895,459.708,628.37z"/>
			<path fill="#007FA2" d="M477.559,639.551h-6.053v-32.885h10.918c8.682,0,11.4,3.812,11.4,9.906c0,4.168-1.186,7.193-4.824,8.814
				c0.658,1.404,1.49,2.852,2.281,4.297c1.576,2.98,3.812,7.279,5.174,9.865h-7.324l-6.355-12.979h-5.217V639.551z M477.559,620.743
				h5.438c3.855,0,4.428-1.842,4.428-4.168c0-2.277-0.57-4.076-4.428-4.076h-5.438V620.743z"/>
		</g>
		<g>
			<path d="M259.789,583.853c0,8.386-3.964,10.07-10.359,10.07c-6.396,0-10.36-1.686-10.36-10.07v-24.914h-2.555v24.962
				c0,11.062,6.902,12.479,12.915,12.479c6.013,0,12.915-1.417,12.915-12.479v-24.962h-2.555L259.789,583.853L259.789,583.853z"/>
			<polygon points="292.457,590.477 271.447,558.939 269.669,558.939 269.669,596.14 272.322,596.14 272.228,564.603 
				293.238,596.14 295.016,596.14 295.016,558.939 292.363,558.939 			"/>
			<rect x="303.642" y="558.939" width="2.602" height="37.201"/>
			<polygon points="326.529,591.573 315.296,558.939 312.482,558.939 325.624,596.379 327.436,596.379 340.579,558.939 
				337.766,558.939 			"/>
			<polygon points="345.758,596.14 366.864,596.14 366.864,593.682 348.36,593.682 348.36,578.071 365.081,578.071 365.081,575.66 
				348.36,575.66 348.36,561.397 366.864,561.397 366.864,558.939 345.758,558.939 			"/>
			<path d="M397.126,569.203c0-6.16-1.958-10.264-11.517-10.264h-11.904v37.201h2.604v-16.674h9.301c0.507,0,0.99,0,1.473-0.024
				l8.711,16.698h3.086l-9.127-16.991C396.212,577.949,397.126,573.672,397.126,569.203z M394.523,569.203
				c0,4.944-1.34,7.809-8.191,7.809h-10.021v-15.613h10.021C393.183,561.397,394.523,564.259,394.523,569.203z"/>
			<path d="M414.965,575.663c-7.771-0.867-9.743-1.673-9.743-7.037c0-3.206,1.009-7.47,9.732-7.47c3.506,0,5.777,0.384,8.683,1.461
				l0.715,0.267v-2.616l-0.334-0.133c-2.412-0.966-5.376-1.436-9.063-1.436c-10.155,0-12.287,5.372-12.287,9.878
				c0,7.351,3.563,8.521,11.697,9.44c8.219,0.951,9.458,1.947,9.458,7.619c0,5.576-3.578,8.287-10.938,8.287
				c-4.433,0-7.291-0.837-9.501-1.654l-0.714-0.265v2.567l0.335,0.133c2.372,0.939,6.691,1.675,9.832,1.675
				c5.075,0,13.589-1.396,13.589-10.743C426.424,577.328,422.284,576.467,414.965,575.663z"/>
			<rect x="434.04" y="558.939" width="2.602" height="37.201"/>
			<polygon points="443.338,561.349 453.842,561.349 453.842,596.14 456.446,596.14 456.446,561.349 466.952,561.349 
				466.952,558.939 443.338,558.939 			"/>
			<polygon points="490.924,550.814 486.655,550.814 480.543,556.304 482.961,556.304 			"/>
			<polygon points="493.696,561.397 493.696,558.939 472.59,558.939 472.59,596.14 493.696,596.14 493.696,593.682 475.19,593.682 
				475.19,578.071 491.913,578.071 491.913,575.66 475.19,575.66 475.19,561.397 			"/>
		</g>
	</g>
</g>
</svg>
