<?xml version="1.0" encoding="UTF-8" standalone="no"?>
<!-- Created with Inkscape (http://www.inkscape.org/) -->

<svg
   width="139.21451mm"
   height="75.688652mm"
   viewBox="0 0 139.21451 75.688652"
   version="1.1"
   id="svg1"
   xmlns="http://www.w3.org/2000/svg"
   xmlns:svg="http://www.w3.org/2000/svg">
  <defs
     id="defs1">
    <clipPath
       clipPathUnits="userSpaceOnUse"
       id="clipPath56">
      <path
         d="M 0,333 H 566.28 V 0 H 0 Z"
         transform="translate(-480.45191,-114.72681)"
         id="path56" />
    </clipPath>
    <clipPath
       clipPathUnits="userSpaceOnUse"
       id="clipPath54">
      <path
         d="M 0,333 H 566.28 V 0 H 0 Z"
         transform="translate(-476.99641,-79.643604)"
         id="path54" />
    </clipPath>
    <clipPath
       clipPathUnits="userSpaceOnUse"
       id="clipPath52">
      <path
         d="M 0,333 H 566.28 V 0 H 0 Z"
         id="path52" />
    </clipPath>
    <clipPath
       clipPathUnits="userSpaceOnUse"
       id="clipPath50">
      <path
         d="M 0,333 H 566.28 V 0 H 0 Z"
         transform="translate(-398.49501,-79.643604)"
         id="path50" />
    </clipPath>
    <clipPath
       clipPathUnits="userSpaceOnUse"
       id="clipPath48">
      <path
         d="M 0,333 H 566.28 V 0 H 0 Z"
         transform="translate(-374.76401,-68.258604)"
         id="path48" />
    </clipPath>
    <clipPath
       clipPathUnits="userSpaceOnUse"
       id="clipPath46">
      <path
         d="M 0,333 H 566.28 V 0 H 0 Z"
         transform="translate(-324.33301,-76.747599)"
         id="path46" />
    </clipPath>
    <clipPath
       clipPathUnits="userSpaceOnUse"
       id="clipPath44">
      <path
         d="M 0,333 H 566.28 V 0 H 0 Z"
         transform="translate(-280.927,-64.502004)"
         id="path44" />
    </clipPath>
    <clipPath
       clipPathUnits="userSpaceOnUse"
       id="clipPath42">
      <path
         d="M 0,333 H 566.28 V 0 H 0 Z"
         transform="translate(-216.13281,-79.643604)"
         id="path42" />
    </clipPath>
    <clipPath
       clipPathUnits="userSpaceOnUse"
       id="clipPath40">
      <path
         d="M 0,333 H 566.28 V 0 H 0 Z"
         transform="translate(-169.3566,-75.571104)"
         id="path40" />
    </clipPath>
    <clipPath
       clipPathUnits="userSpaceOnUse"
       id="clipPath38">
      <path
         d="M 0,333 H 566.28 V 0 H 0 Z"
         transform="translate(-137.48751,-76.489299)"
         id="path38" />
    </clipPath>
    <clipPath
       clipPathUnits="userSpaceOnUse"
       id="clipPath36">
      <path
         d="M 0,333 H 566.28 V 0 H 0 Z"
         transform="translate(-92.225102,-59.282304)"
         id="path36" />
    </clipPath>
    <clipPath
       clipPathUnits="userSpaceOnUse"
       id="clipPath34">
      <path
         d="M 0,333 H 566.28 V 0 H 0 Z"
         transform="translate(-418.90481,-122.1243)"
         id="path34" />
    </clipPath>
    <clipPath
       clipPathUnits="userSpaceOnUse"
       id="clipPath32">
      <path
         d="M 0,333 H 566.28 V 0 H 0 Z"
         transform="translate(-407.30221,-108.46401)"
         id="path32" />
    </clipPath>
    <clipPath
       clipPathUnits="userSpaceOnUse"
       id="clipPath30">
      <path
         d="M 0,333 H 566.28 V 0 H 0 Z"
         transform="translate(-368.96051,-105.12591)"
         id="path30" />
    </clipPath>
    <clipPath
       clipPathUnits="userSpaceOnUse"
       id="clipPath28">
      <path
         d="M 0,333 H 566.28 V 0 H 0 Z"
         transform="translate(-342.26061,-122.1243)"
         id="path28" />
    </clipPath>
    <clipPath
       clipPathUnits="userSpaceOnUse"
       id="clipPath26">
      <path
         d="M 0,333 H 566.28 V 0 H 0 Z"
         transform="translate(-317.03671,-131.12781)"
         id="path26" />
    </clipPath>
    <clipPath
       clipPathUnits="userSpaceOnUse"
       id="clipPath24">
      <path
         d="M 0,333 H 566.28 V 0 H 0 Z"
         transform="translate(-286.65171,-115.52721)"
         id="path24" />
    </clipPath>
    <clipPath
       clipPathUnits="userSpaceOnUse"
       id="clipPath22">
      <path
         d="M 0,333 H 566.28 V 0 H 0 Z"
         id="path22" />
    </clipPath>
    <clipPath
       clipPathUnits="userSpaceOnUse"
       id="clipPath20">
      <path
         d="M 0,333 H 566.28 V 0 H 0 Z"
         transform="translate(-239.96731,-98.9941)"
         id="path20" />
    </clipPath>
    <clipPath
       clipPathUnits="userSpaceOnUse"
       id="clipPath18">
      <path
         d="M 0,333 H 566.28 V 0 H 0 Z"
         transform="translate(-226.61881,-109.08471)"
         id="path18" />
    </clipPath>
    <clipPath
       clipPathUnits="userSpaceOnUse"
       id="clipPath16">
      <path
         d="M 0,333 H 566.28 V 0 H 0 Z"
         transform="translate(-188.238,-122.1243)"
         id="path16" />
    </clipPath>
    <clipPath
       clipPathUnits="userSpaceOnUse"
       id="clipPath14">
      <path
         d="M 0,333 H 566.28 V 0 H 0 Z"
         transform="translate(-156.5716,-122.1243)"
         id="path14" />
    </clipPath>
    <clipPath
       clipPathUnits="userSpaceOnUse"
       id="clipPath12">
      <path
         d="M 0,333 H 566.28 V 0 H 0 Z"
         id="path12" />
    </clipPath>
    <clipPath
       clipPathUnits="userSpaceOnUse"
       id="clipPath10">
      <path
         d="M 0,333 H 566.28 V 0 H 0 Z"
         transform="translate(-115.5927,-122.1243)"
         id="path10" />
    </clipPath>
    <clipPath
       clipPathUnits="userSpaceOnUse"
       id="clipPath8">
      <path
         d="M 0,333 H 566.28 V 0 H 0 Z"
         transform="translate(-85.828405,-106.8726)"
         id="path8" />
    </clipPath>
    <clipPath
       clipPathUnits="userSpaceOnUse"
       id="clipPath6">
      <path
         d="M 0,333 H 566.28 V 0 H 0 Z"
         transform="translate(-480.45191,-142.54011)"
         id="path6" />
    </clipPath>
    <clipPath
       clipPathUnits="userSpaceOnUse"
       id="clipPath4">
      <path
         d="M 0,333 H 566.28 V 0 H 0 Z"
         transform="translate(-364.20091,-142.54011)"
         id="path4" />
    </clipPath>
    <clipPath
       clipPathUnits="userSpaceOnUse"
       id="clipPath2">
      <path
         d="M 0,333 H 566.28 V 0 H 0 Z"
         transform="translate(-85.845205,-142.5381)"
         id="path2" />
    </clipPath>
  </defs>
  <g
     id="layer1"
     transform="translate(-46.566666,-143.66875)">
    <path
       id="path1"
       d="m 0,0 v 42.952 c 48.682,0 88.288,39.604 88.288,88.285 H 131.24 C 131.24,58.874 72.365,0 0,0"
       style="fill:#1f234b;fill-opacity:1;fill-rule:nonzero;stroke:none"
       transform="matrix(0.35277776,0,0,-0.35277776,46.572699,189.96624)"
       clip-path="url(#clipPath2)" />
    <path
       id="path3"
       d="m 0,0 h -42.948 c 0,48.681 -39.602,88.286 -88.282,88.286 v 42.949 C -58.868,131.235 0,72.363 0,0"
       style="fill:#1f234b;fill-opacity:1;fill-rule:nonzero;stroke:none"
       transform="matrix(0.35277776,0,0,-0.35277776,144.7704,189.96554)"
       clip-path="url(#clipPath4)" />
    <path
       id="path5"
       d="m 0,0 h -42.949 c 0,48.681 -39.604,88.286 -88.286,88.286 v 42.949 C -58.873,131.235 0,72.363 0,0"
       style="fill:#1f234b;fill-opacity:1;fill-rule:nonzero;stroke:none"
       transform="matrix(0.35277776,0,0,-0.35277776,185.78117,189.96554)"
       clip-path="url(#clipPath6)" />
    <path
       id="path7"
       d="M 0,0 V 15.252 H 7.645 V 0.155 c 0,-3.919 1.979,-5.782 5.007,-5.782 3.027,0 5.006,1.785 5.006,5.588 v 15.291 h 7.645 V 0.194 c 0,-8.771 -5.006,-12.613 -12.729,-12.613 C 4.851,-12.419 0,-8.499 0,0"
       style="fill:#1f234b;fill-opacity:1;fill-rule:nonzero;stroke:none"
       transform="matrix(0.35277776,0,0,-0.35277776,46.566773,202.54824)"
       clip-path="url(#clipPath8)" />
    <path
       id="path9"
       d="M 0,0 H 7.025 L 18.202,-14.359 V 0 h 7.451 V -27.166 H 19.055 L 7.451,-12.263 V -27.166 H 0 Z"
       style="fill:#1f234b;fill-opacity:1;fill-rule:nonzero;stroke:none"
       transform="matrix(0.35277776,0,0,-0.35277776,57.066955,197.16778)"
       clip-path="url(#clipPath10)" />
    <path
       id="path11"
       d="m 146.211,122.124 h 7.568 V 94.958 h -7.568 z"
       style="fill:#1f234b;fill-opacity:1;fill-rule:nonzero;stroke:none"
       transform="matrix(0.35277776,0,0,-0.35277776,16.28842,240.25052)"
       clip-path="url(#clipPath12)" />
    <path
       id="path13"
       d="M 0,0 H 8.422 L 14.592,-17.192 20.763,0 h 8.266 L 18.008,-27.361 h -6.986 z"
       style="fill:#1f234b;fill-opacity:1;fill-rule:nonzero;stroke:none"
       transform="matrix(0.35277776,0,0,-0.35277776,71.5234,197.16778)"
       clip-path="url(#clipPath14)" />
    <path
       id="path15"
       d="M 0,0 H 21.85 V -6.403 H 7.451 v -4.114 h 13.04 v -5.938 H 7.451 v -4.308 h 14.593 v -6.403 H 0 Z"
       style="fill:#1f234b;fill-opacity:1;fill-rule:nonzero;stroke:none"
       transform="matrix(0.35277776,0,0,-0.35277776,82.694602,197.16778)"
       clip-path="url(#clipPath16)" />
    <path
       id="path17"
       d="m 0,0 c 2.561,0 4.036,1.241 4.036,3.221 v 0.078 c 0,2.134 -1.552,3.221 -4.075,3.221 H -4.968 V 0 Z M -12.497,13.04 H 0.349 c 4.153,0 7.025,-1.087 8.849,-2.949 1.591,-1.553 2.406,-3.648 2.406,-6.327 V 3.687 c 0,-4.152 -2.212,-6.908 -5.589,-8.344 l 6.482,-9.47 H 3.803 l -5.472,8.228 h -0.077 -3.222 v -8.228 h -7.529 z"
       style="fill:#1f234b;fill-opacity:1;fill-rule:nonzero;stroke:none"
       transform="matrix(0.35277776,0,0,-0.35277776,96.234496,201.76786)"
       clip-path="url(#clipPath18)" />
    <path
       id="path19"
       d="m 0,0 4.191,5.007 c 2.678,-2.135 5.666,-3.26 8.81,-3.26 2.018,0 3.104,0.698 3.104,1.863 v 0.077 c 0,1.125 -0.892,1.747 -4.579,2.6 C 5.744,7.607 1.28,9.236 1.28,14.825 v 0.078 c 0,5.045 3.998,8.693 10.518,8.693 4.618,0 8.227,-1.242 11.177,-3.609 L 19.21,14.67 c -2.483,1.747 -5.2,2.677 -7.606,2.677 -1.824,0 -2.717,-0.776 -2.717,-1.745 v -0.079 c 0,-1.241 0.931,-1.785 4.696,-2.638 6.248,-1.359 10.129,-3.377 10.129,-8.461 V 4.347 c 0,-5.55 -4.385,-8.848 -10.983,-8.848 C 7.917,-4.501 3.338,-2.988 0,0"
       style="fill:#1f234b;fill-opacity:1;fill-rule:nonzero;stroke:none"
       transform="matrix(0.35277776,0,0,-0.35277776,100.94355,205.3276)"
       clip-path="url(#clipPath20)" />
    <path
       id="path21"
       d="m 267.481,122.124 h 7.568 V 94.958 h -7.568 z"
       style="fill:#1f234b;fill-opacity:1;fill-rule:nonzero;stroke:none"
       transform="matrix(0.35277776,0,0,-0.35277776,16.28842,240.25052)"
       clip-path="url(#clipPath22)" />
    <path
       id="path23"
       d="M 0,0 H -8.15 V 6.597 H 15.679 V 0 H 7.529 V -20.569 H 0 Z"
       style="fill:#1f234b;fill-opacity:1;fill-rule:nonzero;stroke:none"
       transform="matrix(0.35277776,0,0,-0.35277776,117.41277,199.49509)"
       clip-path="url(#clipPath24)" />
    <path
       id="path25"
       d="M 0,0 6.87,-2.212 1.164,-7.18 h -5.2 z m -11.409,-9.004 h 21.848 v -6.403 H -3.958 v -4.113 h 13.04 v -5.938 h -13.04 v -4.308 h 14.592 v -6.404 h -22.043 z"
       style="fill:#1f234b;fill-opacity:1;fill-rule:nonzero;stroke:none"
       transform="matrix(0.35277776,0,0,-0.35277776,128.13192,193.99154)"
       clip-path="url(#clipPath26)" />
    <path
       id="path27"
       d="m 0,0 h 7.529 v -20.568 h 13.155 v -6.598 H 0 Z"
       style="fill:#1f234b;fill-opacity:1;fill-rule:nonzero;stroke:none"
       transform="matrix(0.35277776,0,0,-0.35277776,137.03035,197.16778)"
       clip-path="url(#clipPath28)" />
    <path
       id="path29"
       d="m 0,0 -10.323,16.998 h 8.576 l 5.588,-9.896 5.628,9.896 h 8.422 L 7.568,0.116 V -10.168 H 0 Z"
       style="fill:#1f234b;fill-opacity:1;fill-rule:nonzero;stroke:none"
       transform="matrix(0.35277776,0,0,-0.35277776,146.44948,203.16444)"
       clip-path="url(#clipPath30)" />
    <path
       id="path31"
       d="m 0,0 v 0.077 c 0,3.92 -2.834,7.335 -6.986,7.335 -4.113,0 -6.869,-3.337 -6.869,-7.257 V 0.077 c 0,-3.919 2.833,-7.335 6.946,-7.335 C -2.756,-7.258 0,-3.92 0,0 m -21.578,0 v 0.077 c 0,7.801 6.287,14.127 14.669,14.127 8.383,0 14.593,-6.248 14.593,-14.049 V 0.077 c 0,-7.8 -6.287,-14.126 -14.67,-14.126 -8.383,0 -14.592,6.248 -14.592,14.049"
       style="fill:#1f234b;fill-opacity:1;fill-rule:nonzero;stroke:none"
       transform="matrix(0.35277776,0,0,-0.35277776,159.97558,201.98683)"
       clip-path="url(#clipPath32)" />
    <path
       id="path33"
       d="M 0,0 H 7.024 L 18.201,-14.359 V 0 h 7.451 V -27.166 H 19.055 L 7.451,-12.263 V -27.166 H 0 Z"
       style="fill:#1f234b;fill-opacity:1;fill-rule:nonzero;stroke:none"
       transform="matrix(0.35277776,0,0,-0.35277776,164.06872,197.16778)"
       clip-path="url(#clipPath34)" />
    <path
       id="path35"
       d="m 0,0 c -3.084,0 -5.083,1.434 -6.397,3.24 l 2.314,2.38 c 1.17,-1.49 2.341,-2.351 4.026,-2.351 1.885,0 3.17,1.262 3.17,3.929 V 20.361 H 6.711 V 7.112 C 6.711,2.351 3.941,0 0,0"
       style="fill:#1f234b;fill-opacity:1;fill-rule:nonzero;stroke:none"
       transform="matrix(0.35277776,0,0,-0.35277776,48.823385,219.33704)"
       clip-path="url(#clipPath36)" />
    <path
       id="path37"
       d="m 0,0 h -11.309 v -5.22 h 10.024 v -3.154 h -10.024 v -5.392 H 0.143 V -16.92 H -14.821 V 3.154 H 0 Z"
       style="fill:#1f234b;fill-opacity:1;fill-rule:nonzero;stroke:none"
       transform="matrix(0.35277776,0,0,-0.35277776,64.790955,213.26679)"
       clip-path="url(#clipPath38)" />
    <path
       id="path39"
       d="M 0,0 -3.427,-8.03 H 3.455 Z M 10.48,-16.002 H 6.768 l -2.027,4.846 h -9.453 l -2.056,-4.846 h -3.598 L -1.57,4.216 h 3.255 z"
       style="fill:#1f234b;fill-opacity:1;fill-rule:nonzero;stroke:none"
       transform="matrix(0.35277776,0,0,-0.35277776,76.033664,213.59071)"
       clip-path="url(#clipPath40)" />
    <path
       id="path41"
       d="M 0,0 H 3.455 V -20.075 H 0.514 l -11.023,14.282 v -14.282 h -3.456 V 0 h 3.256 L 0,-13.88 Z"
       style="fill:#1f234b;fill-opacity:1;fill-rule:nonzero;stroke:none"
       transform="matrix(0.35277776,0,0,-0.35277776,92.535269,212.15403)"
       clip-path="url(#clipPath42)" />
    <path
       id="path43"
       d="M 0,0 H -0.114 L -6.368,9.406 V -4.933 h -3.455 v 20.075 h 3.741 L 0,5.65 6.083,15.142 h 3.74 V -4.933 H 6.311 V 9.464 Z"
       style="fill:#1f234b;fill-opacity:1;fill-rule:nonzero;stroke:none"
       transform="matrix(0.35277776,0,0,-0.35277776,115.39322,217.49565)"
       clip-path="url(#clipPath44)" />
    <path
       id="path45"
       d="m 0,0 c -3.969,0 -6.739,-3.183 -6.739,-7.113 0,-3.929 2.826,-7.169 6.796,-7.169 3.97,0 6.74,3.183 6.74,7.112 C 6.797,-3.241 3.969,0 0,0 m 0,-17.523 c -6.14,0 -10.423,4.675 -10.423,10.353 0,5.679 4.341,10.41 10.48,10.41 6.139,0 10.423,-4.674 10.423,-10.353 0,-5.678 -4.34,-10.41 -10.48,-10.41"
       style="fill:#1f234b;fill-opacity:1;fill-rule:nonzero;stroke:none"
       transform="matrix(0.35277776,0,0,-0.35277776,130.70589,213.17567)"
       clip-path="url(#clipPath46)" />
    <path
       id="path47"
       d="m 0,0 c 0,-5.994 -3.37,-9.006 -8.595,-9.006 -5.198,0 -8.511,3.012 -8.511,8.833 v 11.558 h 3.513 V -0.029 c 0,-3.728 1.914,-5.736 5.055,-5.736 3.113,0 5.026,1.893 5.026,5.592 V 11.385 H 0 Z"
       style="fill:#1f234b;fill-opacity:1;fill-rule:nonzero;stroke:none"
       transform="matrix(0.35277776,0,0,-0.35277776,148.49683,216.1704)"
       clip-path="url(#clipPath48)" />
    <path
       id="path49"
       d="m 0,0 h 3.512 v -16.863 h 10.509 v -3.212 H 0 Z"
       style="fill:#1f234b;fill-opacity:1;fill-rule:nonzero;stroke:none"
       transform="matrix(0.35277776,0,0,-0.35277776,156.8686,212.15403)"
       clip-path="url(#clipPath50)" />
    <path
       id="path51"
       d="m 438.788,59.569 h -3.512 v 20.075 h 3.512 z"
       style="fill:#1f234b;fill-opacity:1;fill-rule:nonzero;stroke:none"
       transform="matrix(0.35277776,0,0,-0.35277776,16.28842,240.25052)"
       clip-path="url(#clipPath52)" />
    <path
       id="path53"
       d="M 0,0 H 3.455 V -20.075 H 0.514 l -11.023,14.282 v -14.282 h -3.455 V 0 h 3.256 L 0,-13.88 Z"
       style="fill:#1f234b;fill-opacity:1;fill-rule:nonzero;stroke:none"
       transform="matrix(0.35277776,0,0,-0.35277776,184.56215,212.15403)"
       clip-path="url(#clipPath54)" />
    <path
       id="path55"
       d="m 0,0 v 0.077 c 0,5.43 -4.359,8.909 -10.325,8.909 -5.162,0 -8.795,-1.873 -11.395,-4.741 l 4.665,-4.665 c 1.912,1.95 3.939,3.059 6.386,3.059 2.104,0 3.441,-1.071 3.441,-2.715 v -0.076 c 0,-1.721 -1.567,-2.753 -4.359,-2.753 h -3.136 v -5.197 h 3.136 c 2.792,0 4.359,-1.032 4.359,-2.752 v -0.077 c 0,-1.644 -1.337,-2.714 -3.441,-2.714 -2.447,0 -4.474,1.108 -6.386,3.058 l -4.665,-4.665 c 2.6,-2.868 6.233,-4.741 11.395,-4.741 5.966,0 10.325,3.479 10.325,8.909 v 0.077 C 0,-8.71 -0.791,-6.871 -2.065,-5.503 -0.791,-4.136 0,-2.297 0,0"
       style="fill:#1f234b;fill-opacity:1;fill-rule:nonzero;stroke:none"
       transform="matrix(0.35277776,0,0,-0.35277776,185.78117,199.77745)"
       clip-path="url(#clipPath56)" />
  </g>
</svg>
