<?xml version="1.0" encoding="utf-8"?>
<!-- Generator: Adobe Illustrator 18.0.0, SVG Export Plug-In . SVG Version: 6.00 Build 0)  -->
<svg width="960" height="331" version="1.2" baseProfile="tiny" id="Layer_1" xmlns="http://www.w3.org/2000/svg" xmlns:xlink="http://www.w3.org/1999/xlink"
	 x="0px" y="0px" viewBox="0 0 960 331" xml:space="preserve">
<g>
	<path fill="#F9931D" d="M7.9,125.2h6.8v34.2c0,11.7,3.6,14.7,10,14.7c6.4,0,10-3,10-14.7v-34.2h6.8v33.9c0,14.8-5.5,20.7-16.8,20.7
		s-16.8-5.9-16.8-20.7V125.2z"/>
	<polygon fill="#F9931D" points="99.3,125.2 99.3,178.6 90,178.6 68.8,132.3 68.7,132.3 68.7,178.6 62.6,178.6 62.6,125.2 
		72.3,125.2 93.1,170.9 93.2,170.9 93.2,125.2 	"/>
	<rect x="121.4" y="125.2" fill="#F9931D" width="6.8" height="53.5"/>
	<polygon fill="#F9931D" points="168.6,178.6 160.5,178.6 145,125.2 152.4,125.2 164.6,172.2 164.8,172.2 177.3,125.2 184.2,125.2 	
		"/>
	<polygon fill="#F9931D" points="200.1,178.6 200.1,125.2 227.6,125.2 227.6,131.1 206.9,131.1 206.9,148.3 226.2,148.3 
		226.2,154.2 206.9,154.2 206.9,172.7 228.1,172.7 228.1,178.6 	"/>
	<path fill="#F9931D" d="M252.7,154.1v24.6h-6.8v-53.5h18.4c9.5,0,12.8,6.7,12.8,13.3c0,6.3-3.5,11.1-9.8,12.2v0.1
		c6.1,1,8.4,3,8.7,13.8c0.1,2.3,0.8,10.7,1.9,14h-7.1c-1.9-3.7-1.5-10.7-2.1-17.8c-0.5-6.5-5.8-6.8-8.1-6.8H252.7z M252.7,148.1
		h10.2c4.9,0,7.2-4.2,7.2-8.9c0-3.9-1.9-8.1-7.2-8.1h-10.3V148.1z"/>
	<path fill="#F9931D" d="M301.3,162.7v1.6c0,7.3,4.6,9.6,9,9.6c5.4,0,9.6-2.3,9.6-8.7c0-11.8-24-10.5-24-26.6
		c0-9.5,6.7-14.5,15.7-14.5c9.8,0,15.2,4.7,14.8,15.6h-7.1c0.1-5.9-1.8-9.7-8.2-9.7c-4.1,0-8.2,2.1-8.2,7.8c0,11.8,24,10.1,24,27
		c0,11.3-7.8,14.9-16.6,14.9c-15.8,0.2-15.8-11.9-15.6-17H301.3z"/>
	<rect x="347" y="125.2" fill="#F9931D" width="6.8" height="53.5"/>
	<polygon fill="#F9931D" points="405.6,125.2 405.6,131.1 391.5,131.1 391.5,178.6 384.7,178.6 384.7,131.1 370.7,131.1 
		370.7,125.2 	"/>
	<path fill="#F9931D" d="M421.5,178.6v-53.5h27.6v5.9h-20.7v17.2h19.3v5.9h-19.3v18.5h21.2v5.9H421.5z M442.9,109.1l-9.7,10.4h-5
		l6.6-10.4H442.9z"/>
	<path fill="#F9931D" d="M492.9,125.2h16.4c6.8,0,11.7,2.4,14.4,8.1c2.1,4.5,2.4,15.2,2.4,16.9c0,11.4-1,18-3.3,21.6
		c-2.9,4.6-8.3,6.9-17.6,6.9h-12.3V125.2z M499.8,172.7h6.4c9.5,0,13-3.6,13-16v-10.8c0-10.8-3.3-14.8-10.4-14.8h-9V172.7z"/>
	<polygon fill="#F9931D" points="546.9,178.6 546.9,125.2 574.5,125.2 574.5,131.1 553.7,131.1 553.7,148.3 573,148.3 573,154.2 
		553.7,154.2 553.7,172.7 574.9,172.7 574.9,178.6 	"/>
	<path fill="#F9931D" d="M151.1,200.4c24.9,0,40.4,13.2,40.4,34.5c0,14.3-7.4,24.9-20.6,30.1c11.2,7.4,18,18.8,27.4,34.1
		c5.2,8.5,8.3,12.6,16.8,24.4h-21.1l-16.2-25.3c-16.2-25.3-23.6-28.1-32.7-28.1h-7.4v53.4h-17.7v-123H151.1z M137.8,254.2h11.4
		c18.9,0,24.4-9.7,24.2-20c-0.2-11.5-7-18.6-24.2-18.6h-11.4V254.2z"/>
	<polygon fill="#F9931D" points="298.5,216.3 246.4,216.3 246.4,253.5 296.7,253.5 296.7,269.3 246.4,269.3 246.4,307.6 
		300.1,307.6 300.1,323.5 228.7,323.5 228.7,200.4 298.5,200.4 	"/>
	<polygon fill="#F9931D" points="432.8,323.5 417.6,323.5 335.3,228.7 335.3,323.5 318.7,323.5 318.7,200.4 332.8,200.4 
		416.2,295.7 416.2,200.4 432.8,200.4 	"/>
	<polygon fill="#F9931D" points="573.7,323.5 558.5,323.5 476.2,228.7 476.2,323.5 459.6,323.5 459.6,200.4 473.7,200.4 
		557.1,295.7 557.1,200.4 573.7,200.4 	"/>
	<polygon fill="#F9931D" points="670.5,216.3 618.4,216.3 618.4,253.5 668.7,253.5 668.7,269.3 618.4,269.3 618.4,307.6 
		672.2,307.6 672.2,323.5 600.7,323.5 600.7,200.4 670.5,200.4 	"/>
	<path fill="#F9931D" d="M749.4,227.5c-10.5-9.9-20.6-12.8-28.9-12.8c-11.4,0-19.5,6-19.5,14.6c0,23.6,53.2,23.3,53.2,62.4
		c0,19.3-14.6,33.4-34.5,33.4c-13.4,0-24.2-3.6-34.5-11.4v-22.4c9,11.5,20.4,17.9,32.5,17.9c13.7,0,20-8.7,20-15.5
		c0-25.4-53.2-28.3-53.2-62.1c0-20,14.8-32.8,37.4-32.8c9.4,0,18.8,2.9,27.4,8.7V227.5z"/>
	<path fill="#F9931D" d="M880,184.7L880,184.7l-0.1-4.6h-7.7l-0.8,2.5c-5.8,7.6-25.3,30.5-56.8,42.2l2.6,7.7
		c9.8-3.8,18.1-8.2,25.4-12.7v100.9h37.4v-136C879.9,184.8,880,184.7,880,184.7"/>
	<path fill="#A72C31" d="M719.6,159.5L719.6,159.5l-0.4-0.6l-0.1,0.1L719.6,159.5z M720.4,158.1c-0.3-0.1-0.9-0.4-0.9-0.4
		c0.9-1.4,0-2.3-0.9-3.1l-0.7,0.8c0.3,0.5,0.8,0.4,1-0.3c-0.6,1.6-0.4,2.7,0.2,3.8C719.7,158.6,720.3,158.5,720.4,158.1
		 M709.4,148.9c-0.3-0.1,1.4-1,0.8-1.1c-1-0.6-2.2-0.9-2.7-1.7c-0.6-0.1,0.9-1.8,0.3-2c-1-0.6-4.5-1.3-3.6-0.1
		c1.4,1.7,2.6,2.7,3.9,4.3c1.5,1,2.9,2.1,4.4,3.3c0.3,0.4,0.4,0.9,0.4,1.3l0-2.1C713.1,149.8,710.4,149.9,709.4,148.9 M716.8,148.3
		c-0.1,0.4,0.4,0.3,0.8,0.3l-0.5-1.2L716.8,148.3z M715.2,144.4l0.7,1C715.8,145,715.6,144.7,715.2,144.4 M715.6,146.2
		c0.2-0.3,0.4-0.5,0.7-0.4l0,0l-0.5-0.5L715.6,146.2z M716.4,145.9l0.3,0.3l-0.1-0.2L716.4,145.9z M709.9,143.5
		c-0.8-0.9-1.1-2-0.9-3.6c0,0.7-0.5,0.9-1,0.5l0.5-0.9c1.1,0.5,2.1,1.1,1.4,2.7c0,0,0.6,0.2,0.9,0.2
		C710.8,142.9,710.3,143.2,709.9,143.5l0.5,0.5c0.6-0.9,0.8-2.9,0.8-2.9c-1.6-2.5-3.3-4.8-4.8-7.2c-0.4,0.1-0.9,0.2-0.9-0.1l0.1-0.9
		l-0.7-1l-0.4-0.2h0c-0.3,0-0.5,0.2-0.6,0.5l0-0.8l-0.2-0.2c0,0,0.1,0,0.1,0.1c0,0,0.1,0.1,0.1,0.1l0.5,0.3l0,0l0.1,0.1l0.3,0
		l-1.6-2.3l-0.5-0.3c-0.6-0.4-1.3-0.6-0.9-1.6l-0.3-0.4l-0.1,0.2V127l-1.3-1.7c-0.9-1.1-1.7-2.3-2.7-3.3
		c-6.1-7.1-13.4-12.1-22.8-16.3c-5.2-2.1-10.8-4.2-17.7-3.4c-14.5,3.7-20,15.9-20.9,31.9c-0.1,5.7,4.8,12.1,8.4,15.6
		c-0.3,1.3-0.6,2.5-1,3.4c-0.8,2.1,0.3,6.9,3.3,10.2c6.8,3,5.1-3.9,5.4-3.6c1.5-3.4-0.1-2.4,1.3-5.5c-0.9,1.9-2.7-0.8-0.2-2.7
		c3.7-3.1,1-5,2.7-5.3c0.5-0.1,0.7-0.4,1-0.7c3.2-0.2,6.4-3,11.3-2.4c1.2,0,2.4-1,3.5-1.4c0.8,0,1.6,0.6,2.2,0.7
		c1,0.2,1.9,0,2.9-0.3c-1,0-1.7,0.2-2.8,0.2c-0.7-0.1,0.7-1.2,1.2-1.4c0.2-0.2,0.4,1,0.6,0.8c0.4,0.1,0.9-0.3,1.5-0.5
		c0.2-0.2,0,0.8,0.1,0.7c0.7-0.2,1.5-1.2,1.8-0.8l0.7,0.7l0.5,0.2l0.4-0.1l3.2-0.6l0-0.1c-0.6-0.1-1.1-0.3-1.4-1.1
		c0.2,0.3,0,0.5-0.2,0.5l-0.1-0.5c0.6-0.1,1.2-0.2,1.4,0.6c0,0,0.3-0.1,0.4-0.2c0.1,0.2,0,0.5-0.1,0.7l0.4,0c0-0.5-0.5-1.4-0.5-1.4
		l-3.9-1.4c-0.2,0.2-0.3,0.4-0.4,0.2l-0.2-0.5l-0.5-0.2l-0.2,0l0,0l-0.1,0.4l-0.2-0.3l0.3-0.1h0l0.1,0l0.1-0.1l-1.3-0.4l-0.3,0
		c-0.4,0.1-0.7,0.2-0.8-0.4l-0.2-0.1l0,0.1l-0.1-0.1l-1-0.3l-2-0.6c-4.4-1.1-8.7-1-13.6-0.5c-1.4,0.1-2.7,0.4-4.1,0.7
		c-0.5-1-0.8-2.3-0.5-4.5c-0.2,4.3-5.8-0.6-1.3-4.2c6.2-2.4,2.5-6,6.5-7.9c0.5-0.1,0.9-0.2,1.4-0.5c3.3,1.3,12.4,0.9,19.9,7.1
		c2,1.4,4.9,1.4,7.2,2.2c1.5,0.8,2.1,2.7,3,3.7c1.5,1.5,3.3,2.3,5,3.1c-1.5-1.3-2.9-1.9-4.6-3.3c-1.1-1,2.4-1,3.5-0.7
		c0.6,0-0.5,1.9,0.1,1.9c0.6,0.7,1.8,0.8,2.8,1.2c0.6,0-0.9,1.3-0.6,1.3c1.2,0.7,3.8,0,3.9,1l0.4,2l0.6,1l0.8,0.3c2,0.8,4,2,5.7,3.3
		L709.9,143.5z M673.9,137.3c-0.3,0.1-0.7-0.1-1-0.7C673.4,136.3,673.7,136.8,673.9,137.3 M697.5,124.2c-0.7-0.2-1.1-1-1-2.2
		C697.6,122,697.7,123,697.5,124.2 M687.8,140.2l-0.1,0L687.8,140.2L687.8,140.2z M687.6,140.2L687.6,140.2l-0.3,0l0.2,0.4
		L687.6,140.2z M685.7,143.7c-0.1,0.1,0.3-0.9,0-0.8c-0.5,0-1.1,0.4-1.6,0.2c-0.3,0.1-0.2-1-0.5-0.9c-0.6,0.1-2.2,1-1.5,1.2
		c1.1,0.2,1.9,0.1,2.8,0.3h2.6l0.5,0.4l-0.6-0.8C687.4,142.9,686.4,143.8,685.7,143.7 M688.5,141c0.1,0.2,0.2,0,0.4-0.1l-0.5-0.4
		L688.5,141z M692.3,143.8c0-0.9-0.7-0.9-1.3-0.9l-0.1,0.5c0.3,0.1,0.5-0.1,0.4-0.5c0.2,0.8,0.7,1.2,1.2,1.4
		c0.1-0.2,0.3-0.5,0.2-0.7L692.3,143.8z M692.5,144.5l0.4,0l0,0L692.5,144.5L692.5,144.5z"/>
	<path fill="#A72C31" d="M679.4,23.7l0-0.1C679.2,23.7,679,23.8,679.4,23.7 M683.3,22.8L683.3,22.8C682.8,22.8,683,22.8,683.3,22.8
		 M683.4,22.8c-0.3,0.1-0.7,0.2-1.5,0.4C682.3,23.1,682.8,23,683.4,22.8L683.4,22.8z M683.3,22.8L683.3,22.8
		C684.1,22.6,683.7,22.7,683.3,22.8 M683,22.3l-1.2-1.3l1.3,1.4l0.2,0.3c0,0,0,0,0.1,0L683,22.3z M649.5,18.9l3,0.7
		c3.5,0.9,6.8,1.8,10.1,3.5l2.5,1.6l-3.3-2.3c-1.6-1-4-1.4-6.8-2.2c-0.4-0.1-0.2-0.6-1.1-0.7c-1.7-1.8-4.8,2-5.1-3.8
		c0.9-0.3,2.6,0,3.5-0.3c2.1-0.8,7.9-2.1,4.5-1.7c-2.6,0.5-4.7,1-6.7,1.5l-1.5,0.4C648.1,22,649.2,17.3,649.5,18.9 M656.9,18.6
		L656.9,18.6l-1.4-0.4l1.3,0.6C656.5,18.6,656.4,18.5,656.9,18.6 M651.2,16c2.5-0.4,4.9-1.3,7.5-0.8c-1.1-0.1-1-0.2,0.3-0.3l1,0.2
		c-2.3,0-4.4,0.5-6.5,0.7c0,0-0.9,0.3-1.4,0.5C651.4,16.3,651.4,16.2,651.2,16l-1.5,0.3c1.1,0.1,4.4-0.2,4.4-0.2
		c6.1-1.2,12.3-0.9,17.6,1.2c0.4,0.1,0.8,0.1,1.3,0.3l1.2,0.7l2.1,1.3l0.8,0.4l0,0c0.4,0.2,0.4,0.1,0.2-0.2l1,1
		c0.2,0.2,0.4,0.4,0.7,0.5c-0.1-0.1-0.3-0.2-0.5-0.4c-0.1-0.1-0.1-0.1-0.2-0.2l-0.3-0.2l-0.6-0.5l0.3,0.2l-0.5-0.4l-0.4-0.2
		c0.9,0.6,1.7,1.3,2.4,2c0,0.4,0,0.7,0.1,1.1l0.1,0.6v0c0.3-0.1,0.7-0.3,0.1-0.1l0-0.5c0,0.2,0.3,0.3,1.1,0.3
		c0.1,0.1,0.1,0.1,0.2,0.2c-0.6,0.1-1,0.2-1.3,0.3l0,0c0.5-0.1,0.9-0.2,1.3-0.3c0.1,0.1,0.2,0.2,0.3,0.3c0.2,0.6,1.6,0.1,0.9-0.3
		c0-0.1,0-0.2,0-0.2c0,0,0-0.1,0-0.1c0.3-0.1,0.7-0.1,1.1-0.2c-0.4-0.4-0.8-0.8-1.1-1.2c0-0.8,0-1.4-0.1-1.9l-0.3-1l0,0.2l-0.1-0.4
		c-0.3-1.5-1.3-2.7-2.1-4c-1.6-2.1-3.6-3.9-5.8-5.4c0.7,0.6,1.4,1.4,1.6,1.6c-0.6-0.1-2.2-1.9-2.8-2c0.2-0.3,0.6-0.1,1,0.3
		c-0.2-0.2-0.4-0.4-0.7-0.5c5.8,1.7,16.6,5.6,21.6,12.8c1.3,1.4,2.4,2.9,3.4,4.5c-0.1,0.4-0.1,0.8-0.2,1.2l-0.1,0.4
		c2.1-0.2-3.1,0.3,1.3-0.1l0.5,0.9c1,0-1.6,1,2.2,0.2l0.2-0.9c0-0.2,0.1-0.3,0.1-0.5c0.5,0,0.9-0.1,1.5-0.1l0,0l0,0l0-0.1l-0.1-0.1
		l-0.1-0.3l-0.6-1l-0.2-0.3c0.1-0.4,0.1-0.8,0.1-1.2c0.2-2.2-0.3-4.4-1.1-6.5c3.2,2.6,5.8,5.8,8.2,9.1c1.4,0.7,1.4,2.1,1.9,3.3
		c-0.3,0-0.4,0,0,0c0.5,1.1,1.6,1.9,5,1.5c0.2-0.5,0.4-1.1,0.6-1.6c0.2,0,0.3,0,0.5,0l0-0.1l-0.1-0.1l-0.2-0.2l0-0.1
		c0.5-2.1,0.5-4.1,0.6-6c0-0.9-0.1-1.8-0.2-2.7c0.8,0.3,1.6,0.7,1.7,1.5c3.5,3.1,7,6.3,9.8,10C734.7,39,739,47.5,741.4,57
		c2.2,7.2,4.5,21,4.2,28.2c0.5,9.6,2.9,4.9,3.2,4.4c2-5.9,1.5-10.7,0.3-22.4c0.4,5.4-2.3-8-4.1-15.6c-2.1-12.2-13.3-26.6-25.2-35.6
		l-2.2-1.8l-1.2-0.9l-0.1-0.1l0,0l0,0c4.3-2.9-5.8,3.9-4.8,3.2v0v0l0,0.1l0.1,0.3l0.1,0.7c0.3,1.6,0.5,3.3,0.6,5.1l0-0.1
		c-3.5-4.5-7.4-8.9-13.3-11.8l-0.5-0.3l-0.3-0.1l0,0l0,0c3-5-4.1,6.8-3.3,5.6l0,0l0.4,0.4l0.9,1.2c0.1,0.1,0.1,0.2,0.1,0.3
		c-1.5-1.6-3-3.1-4.8-4.6c-5.4-3.9-11.2-6.5-17-6.5l-1.6-0.2l-0.8-0.1l-0.4-0.1l-0.2,0l-0.1,0h0c-0.5,1.9,1.1-4.3-1.1,4.4h0l0,0l0,0
		l0.1,0l2.1,1.5c1.4,1.1,2.5,2.2,3.4,3.3c0.8,0.9,1.5,1.9,2,2.8c-2.1-1.2-4.1-1.7-5.6-2.3c-1.4-0.7-2.7-1.2-4-1.4l-2.6-0.5l-1.7-0.2
		C660,14.2,655.3,14.7,651.2,16L651.2,16z M679.7,22.4c-0.1,0.2-0.2,0.5-0.2,0.6l0-0.1c-0.1-0.3-0.1-0.6-0.1-0.8
		C679.5,22.1,679.6,22.3,679.7,22.4 M676.4,15.7c-2-2.2,2,1,2.8,2.9c0.1,0.2,0.1,0.3,0.1,0.5c-0.4-0.3-0.7-0.4-1.1-0.7
		C677.8,17.6,677.2,16.6,676.4,15.7 M657.3,18.7l-0.4-0.1l0.8,0.3L657.3,18.7z M655.5,18.2c-0.7-0.3-1.4-0.5-2.3-0.7L655.5,18.2z
		 M656.7,18.8l0.8,0.5C657.4,19.2,657,18.9,656.7,18.8 M662.6,21.2c-0.8-0.5-1.7-0.8-2.5-1.2l1.2,0.7L662.6,21.2z M837.8,33.8
		c-1.3-0.4-4.9-0.8-3.3,0.2c2.5,1.5,4.2,2.2,6.4,3.6c2,0.8,3.9,1.6,5.9,2.6l1.3,1.2l-1.4-2c-0.7-1-2.7-0.6-4.2-1.4
		c-0.3,0,0.5-1-0.1-1.1c-1.2-0.5-2.4-0.7-3.4-1.4C838.3,35.5,838.4,33.9,837.8,33.8 M848.9,36.9l-1.2-1.1l0.3,0.9
		C848.2,37,848.5,36.9,848.9,36.9 M785.2,10.7c-1.9,0.1-3.9,0.4-5.9,0.7c1.1,0.2,2.1,0.6,3.2,1.3C783.8,13,784.3,11.7,785.2,10.7
		 M774.1,16.3l1.3,0.5C775.1,16.6,774.6,16.5,774.1,16.3 M846.3,34.6l-0.3-0.1l0.5,0.2L846.3,34.6z M846.1,34.6L846.1,34.6l-0.8-0.4
		l0.4,0.8C845.7,34.7,845.8,34.5,846.1,34.6 M844.1,33.4l1.2,0.8C845,33.9,844.7,33.6,844.1,33.4 M857.1,45.5
		c-0.3-0.1-0.9-0.3-0.9-0.3c-0.2-1.6-1.4-2.2-2.6-2.9l0,0.9c0.6,0.5,0.9,0.3,0.6-0.4c0.6,1.6,1.5,2.7,2.6,3.7
		C856.9,46.2,857.3,46,857.1,45.5 M856.8,46.5l-0.1,0.1l0.7,0.5l0,0L856.8,46.5z M828.5,97.6c-5.5-5.7-9.2-13.6-13.8-18.1
		c-6.5-6.5-16.6-11.7-21.1-12.9c4.5,2.9,12.7,7.1,19.9,13.2c5.1,4.4-8,1.5-12-0.2c-2.1-0.3-0.7-6.4-2.9-6.7
		c-3.6-2.8-6.6-2.5-9.8-3.4c-1.8,0,1.9-3.6,1-3.6c-2-1.1-5.6-0.9-8.1-1.3c-0.1-0.6-0.1-1.2-0.1-1.8c0.9-6.5-3.9-12.2-4.5-18
		c1.3,0.7,2.3,0.7,2.1-0.5c-0.5-4.1-0.9-6.4,0.4-9.1c0-0.4,0-0.8,0.1-1.1c2-2.9,4.5-5.6,7.6-7.6c1.4-0.1,2.7,0.3,3.9,0.7
		c-0.9-0.4-1.8-0.9-2.8-1.4c3.5-2,7.6-3.1,12.4-2.4c2.9,0.2,5.9-0.5,8.8-0.2c1.1,0.2,2.2,0.6,3.1,1.1c2,2.2,4.2,3.8,6.8,4.9
		c0.3-0.7,0.7-1.5,0.9-2.2c0.6,0.1,1.1,0.3,1.7,0.4c-0.6-0.2-1.1-0.4-1.6-0.6c0-0.2,0.1-0.5,0.1-0.7c0.9,0.2,1.8,0.2,2.8,0.4
		c0.6,0,0,1.1,0.3,1.1c1.6,0.6,3.6-0.2,4.4,0.6l1.7,1.7l1.1,0.8l1,0.2c2.3,0.5,4.9,1.5,7.2,2.4l0-0.1c-1.3-0.7-2.4-1.6-3.2-3.1
		c0.4,0.6,0.1,0.8-0.5,0.5l-0.1-0.8c1.3,0.4,2.6,0.9,3.1,2.3c0,0,0.6,0.1,0.9,0.1c0.2,0.4,0,0.7-0.1,1l0.8,0.4
		c-0.1-0.9-1.2-2.6-1.2-2.6c-3.1-2.1-6-4-8.9-5.7c-0.4,0.1-0.7,0.2-0.9-0.1l-0.5-0.8l-1.3-0.8l-0.5-0.2l0,0c-0.3,0-0.3,0.2-0.3,0.5
		l-0.5-0.7l-0.3-0.1l0.1,0c0,0,0.1,0.1,0.1,0.1l0.6,0.2l0,0l0.2,0l0.3,0l-3-1.7l-0.7-0.2c-0.8-0.2-1.6-0.4-1.8-1.2l-0.5-0.3l0.1,0.2
		l-0.2-0.2l-2.3-1.1c-1.6-0.7-3.1-1.5-4.8-2.1c-10.4-4.2-22.5-5.1-33.6,1.6c-5.7,3.6-10.7,8.6-13.5,15.2c-0.1,0.2-0.1,0.3-0.1,0.5
		c-2.9,1-6.4,4.7-6.2,4.8c-1.7,11.5,1.8,22.2,7.2,31.1c1.2,0.1,2.5-0.1,2.5,1.2c-0.2,1.2-0.1,2.1,0.1,3l2.8,3.7l1.3,1h0
		c0.8,0.2,1.2-0.3,1.5-1c0.1,0.1,0.1,0.2,0.2,0.2c0.1,0.7,0.2,1.4,0.6,2.1c0.5,0.3,1.1,0.6,1.6,1c-0.4-0.2-0.9-0.5-1.4-0.7
		c-0.1-0.1-0.2-0.2-0.2-0.3l-2.3-1.3l-0.8-0.3c2.1,2.8,4.8,5,7.2,7.6c0.7,0.4,1.4,0.9,1.9,1.1c2.3,0.9,4.6,1.9,4.1,4.8l1.3,1.2
		l0-0.6l0.2,0.8l5,5.4c3.2,3.5,6.2,7.4,8.9,11.4c8.6,12.9,15.2,26.7,15.8,39.8c0.8,13.4-7.7,20.9-17.3,16.8
		c-11.8-5.1-22.7-19.8-30.4-33.7c-6.4-11.6-13.5-22.3-20.2-33.3l0.2,0.1c0,0-20.4-59.2-57.7-63.3c-6.7-0.8-12.8-1.1-18.4-1.2
		c0.2-2.2-1.2-4.1-2.5-5.8l0.3,1c0.7,1.1,0.9,1.2,0.4,0.1c0.9,1.5,1.3,3.1,1.5,4.7c-14.9-0.1-26.1,2.2-34.5,6.2
		c-1-0.4-2-0.8-3.1-1.1c-14.9-4.4-9.4-16.7-9.4-16.7c-42.7,37.8-45.9,64.3-43.3,77.9c0.6,4,1.9,7.5,4.1,10.3
		c0.1,0.2,0.2,0.3,0.2,0.3l0,0c1,1.2,2.1,2.4,3.4,3.3c11.8,8.3,32.4-0.7,46.3-19.9c16.4,6.3,18.9-6.6,37.9-1.9
		C661,91,684.6,78,690,93.7c1.6,10.8,1.4,11.9,7,18.5c6.8,9,17.4,21.1,23,33c2.9,6.3,8,11.5,13.1,18.3
		c12.9,17.9,24.3,37.4,62.8,46.2c21.1,4,47.7-10.2,55.5-30.8c8.5-20.2,4.9-36.8,1.4-50.9C847.7,112.9,837,104.7,828.5,97.6
		 M818.4,24.2c0.4,0,0.6,0.6,0.8,1c-1,0.1-2.1,0.1-2.1,0.1c-0.1-0.4-0.2-0.7-0.4-1.1C817.4,24.1,818,24.1,818.4,24.2 M815.1,18.3
		c-0.8-0.1-1.8-0.5-2.4-1.4C813.9,16.7,814.6,17.4,815.1,18.3 M765,45.8c0.1,0.6,0.1,1.3,0.2,1.9l-1.8,1.4
		c-1.7-3.3-3.3-7.9,1.2-10.5c0,0-1-1.8-1.2-2.7c0.8-0.6,1.7-0.5,2.6-0.3c-0.7,2.8-1.1,5.5-1,8c-0.5,1.1-1.1,2.2-1.9,3.4
		C763.6,45.9,764.4,45.5,765,45.8 M804.8,110.9c-3.5-0.9-3.4-4.2-3.2-7.5C804,104.4,805.2,107.5,804.8,110.9 M773,15.9
		c-0.9-0.4-1.5-1-0.8-2l0,0l-2.6,2C770.9,15.6,772,15.6,773,15.9 M772.9,13.1l-0.7,0.8l1.7-1.2L772.9,13.1z M765.6,19.3
		c1.6-0.9,2.8-2.3,4.1-3.5C768.2,16.3,766.8,17.5,765.6,19.3 M822,30.1l0-0.1l-2.4-1l-0.2,0.4L822,30.1z"/>
	<path fill="#A72C31" d="M876,88.2c-3,0-4.2-2.5-3.7-5.9l0.2-0.7c-2.5,4.1-6.2,7-9.9,7c-5.7,0-7.3-5.5-6-12.7l2.1-11.5
		c0.3-2,0.2-3.6-0.9-3.6c-1,0-2.8,1.3-3.4,2v-2c1.6-1.7,3.9-2.9,5.5-2.9c3,0,4.2,2.5,3.6,5.9l-2.1,11.8c-1,5.5-0.4,9.1,3.6,9.1
		c2.8,0,7.7-4.2,9.3-13l2.2-12.7h4.8l-4,22.8c-0.3,2-0.3,3.5,0.9,3.5c0.9,0,2.7-1.3,3.4-1.9v2C879.9,87,877.5,88.2,876,88.2"/>
	<path fill="#A72C31" d="M921.8,84.4c-4.1,5.3-9,7.2-15.4,7.2c-10.9,0-17.6-8.2-17.6-18.3c0-10.8,7.6-18.3,17.8-18.3
		c9.8,0,16.5,6.7,16.5,18.2v1.9h-28.1c0.4,6,5,11.1,11.4,11.1c5,0,8.3-1.8,11.1-5.3L921.8,84.4z M916.8,70.2
		c-0.2-5.9-4.1-9.8-10.5-9.8c-6.4,0-10.6,3.9-11.4,9.8H916.8z"/>
	<path fill="#A72C31" d="M933.6,90V56.4h7v11h13.9V90H933.6z M947.5,74.4h-7V83h7V74.4z"/>
	<path fill="#A72C31" d="M905.8,38.7c11.8,0,22.1,5.9,28.4,14.9l1.8-1.2c-6.7-9.5-17.7-15.8-30.2-15.8c-12.5,0-23.6,6.3-30.2,15.8
		l1.8,1.2C883.6,44.6,894.1,38.7,905.8,38.7 M934.3,93c-6.3,9-16.7,15-28.5,15c-11.8,0-22.3-6-28.5-15l-1.8,1.2
		c6.6,9.6,17.7,16,30.3,16c12.5,0,23.6-6.3,30.3-15.9L934.3,93z"/>
</g>
</svg>
