<svg xmlns="http://www.w3.org/2000/svg" style="display:none" aria-hidden="true">
  <symbol id="icon-book" viewBox="0 0 24 24" fill="none" stroke="currentColor" stroke-width="1.8" stroke-linecap="round" stroke-linejoin="round">
    <path d="M2 5.5C2 5.5 5 4 12 5.5C19 4 22 5.5 22 5.5V18.5C22 18.5 19 17 12 18.5C5 17 2 18.5 2 18.5V5.5Z"/>
    <path d="M12 5.5V18.5"/>
  </symbol>
  <symbol id="icon-compass" viewBox="0 0 24 24" fill="none" stroke="currentColor" stroke-width="1.8" stroke-linecap="round" stroke-linejoin="round">
    <circle cx="12" cy="12" r="9"/>
    <path d="M14.3 9.7L12.8 13.2L9.3 14.7L10.8 11.2L14.3 9.7Z"/>
  </symbol>
  <symbol id="icon-graduate" viewBox="0 0 24 24" fill="none" stroke="currentColor" stroke-width="1.8" stroke-linecap="round" stroke-linejoin="round">
    <path d="M12 4L2 8.5L12 13L22 8.5L12 4Z"/>
    <path d="M6 10.7V15.3C6 15.3 8.5 17.5 12 17.5C15.5 17.5 18 15.3 18 15.3V10.7"/>
    <path d="M22 8.5V14.5"/>
  </symbol>
  <symbol id="icon-live" viewBox="0 0 24 24" fill="none" stroke="currentColor" stroke-width="1.8" stroke-linecap="round" stroke-linejoin="round">
    <circle cx="12" cy="12" r="8"/>
    <circle cx="12" cy="12" r="2.6" fill="currentColor" stroke="none"/>
  </symbol>
  <symbol id="icon-pen" viewBox="0 0 24 24" fill="none" stroke="currentColor" stroke-width="1.8" stroke-linecap="round" stroke-linejoin="round">
    <path d="M17 3.5C17.8 2.7 19.1 2.7 19.9 3.5L20.5 4.1C21.3 4.9 21.3 6.2 20.5 7L8 19.5L3.5 20.5L4.5 16L17 3.5Z"/>
    <path d="M15 5.5L18.5 9"/>
  </symbol>
  <symbol id="icon-target" viewBox="0 0 24 24" fill="none" stroke="currentColor" stroke-width="1.8" stroke-linecap="round" stroke-linejoin="round">
    <circle cx="12" cy="12" r="8.5"/>
    <circle cx="12" cy="12" r="5"/>
    <circle cx="12" cy="12" r="1.5" fill="currentColor" stroke="none"/>
  </symbol>
  <symbol id="icon-note" viewBox="0 0 24 24" fill="none" stroke="currentColor" stroke-width="1.8" stroke-linecap="round" stroke-linejoin="round">
    <path d="M6 3.5H14L18 7.5V20.5H6V3.5Z"/>
    <path d="M14 3.5V7.5H18"/>
    <path d="M8.5 12H15.5"/>
    <path d="M8.5 15.5H13.5"/>
  </symbol>
  <symbol id="icon-scale" viewBox="0 0 24 24" fill="none" stroke="currentColor" stroke-width="1.8" stroke-linecap="round" stroke-linejoin="round">
    <path d="M12 3V21"/>
    <path d="M7 21H17"/>
    <path d="M4 6.5H10"/>
    <path d="M14 6.5H20"/>
    <path d="M4 6.5L2 11.3C2 12.7 3.3 13.8 5 13.8C6.7 13.8 8 12.7 8 11.3L6 6.5"/>
    <path d="M18 6.5L16 11.3C16 12.7 17.3 13.8 19 13.8C20.7 13.8 22 12.7 22 11.3L20 6.5"/>
  </symbol>
  <symbol id="icon-ruler" viewBox="0 0 24 24" fill="none" stroke="currentColor" stroke-width="1.8" stroke-linecap="round" stroke-linejoin="round">
    <path d="M3 21L12 3L21 21H3Z"/>
    <path d="M8 21V15H16V21"/>
  </symbol>
  <symbol id="icon-help" viewBox="0 0 24 24" fill="none" stroke="currentColor" stroke-width="1.8" stroke-linecap="round" stroke-linejoin="round">
    <circle cx="12" cy="12" r="9"/>
    <path d="M9.5 9.3C9.5 7.9 10.6 7 12 7C13.4 7 14.5 7.9 14.5 9.2C14.5 10.9 12.3 11 12.2 13"/>
    <circle cx="12" cy="16.3" r="0.9" fill="currentColor" stroke="none"/>
  </symbol>
  <symbol id="icon-sparkle" viewBox="0 0 24 24" fill="currentColor" stroke="none">
    <path d="M12 3L13.3 9.1C13.6 10.4 14.6 11.4 15.9 11.7L22 13L15.9 14.3C14.6 14.6 13.6 15.6 13.3 16.9L12 23L10.7 16.9C10.4 15.6 9.4 14.6 8.1 14.3L2 13L8.1 11.7C9.4 11.4 10.4 10.4 10.7 9.1L12 3Z"/>
  </symbol>
  <symbol id="icon-menu" viewBox="0 0 24 24" fill="none" stroke="currentColor" stroke-width="1.8" stroke-linecap="round" stroke-linejoin="round">
    <path d="M4 7H20"/>
    <path d="M4 12H20"/>
    <path d="M4 17H20"/>
  </symbol>
  <symbol id="icon-trophy" viewBox="0 0 24 24" fill="none" stroke="currentColor" stroke-width="1.8" stroke-linecap="round" stroke-linejoin="round">
    <path d="M7 4H17V10C17 13 14.8 15 12 15C9.2 15 7 13 7 10V4Z"/>
    <path d="M7 5.5H4V7.5C4 9.2 5.3 10.5 7 10.5"/>
    <path d="M17 5.5H20V7.5C20 9.2 18.7 10.5 17 10.5"/>
    <path d="M12 15V18.5"/>
    <path d="M8.5 21.5H15.5"/>
    <path d="M9.5 18.5H14.5L15 21.5H9L9.5 18.5Z"/>
  </symbol>
  <symbol id="icon-star" viewBox="0 0 24 24" fill="currentColor" stroke="none">
    <path d="M12 3.5L14.7 9.3L21 10.1L16.3 14.3L17.6 20.6L12 17.4L6.4 20.6L7.7 14.3L3 10.1L9.3 9.3L12 3.5Z"/>
  </symbol>
  <symbol id="icon-cards" viewBox="0 0 24 24" fill="none" stroke="currentColor" stroke-width="1.8" stroke-linecap="round" stroke-linejoin="round">
    <rect x="5.5" y="7" width="15" height="12.5" rx="1.5" transform="rotate(-4 13 13.25)"/>
    <rect x="4" y="8.5" width="15" height="12.5" rx="1.5"/>
    <path d="M7.5 13.5H15.5"/>
    <path d="M7.5 17H12.5"/>
  </symbol>
  <symbol id="icon-euro" viewBox="0 0 24 24" fill="none" stroke="currentColor" stroke-width="1.8" stroke-linecap="round" stroke-linejoin="round">
    <path d="M17 6.3C15.8 5 14.2 4.3 12.5 4.3C8.9 4.3 6 7.6 6 11.7V12.3C6 16.4 8.9 19.7 12.5 19.7C14.2 19.7 15.8 19 17 17.7"/>
    <path d="M4 10.3H14"/>
    <path d="M4 13.7H13"/>
  </symbol>
  <symbol id="icon-close" viewBox="0 0 24 24" fill="none" stroke="currentColor" stroke-width="1.8" stroke-linecap="round" stroke-linejoin="round">
    <path d="M5 5L19 19"/>
    <path d="M19 5L5 19"/>
  </symbol>
  <symbol id="icon-shield" viewBox="0 0 24 24" fill="none" stroke="currentColor" stroke-width="1.8" stroke-linecap="round" stroke-linejoin="round">
    <path d="M12 3.5L19 6.3V11C19 15.4 16.1 19.3 12 20.5C7.9 19.3 5 15.4 5 11V6.3L12 3.5Z"/>
    <path d="M9 11.3L11 13.3L15.3 9"/>
  </symbol>
</svg>
